# File created by Blade
# Date/Time:  Thu Mar 15 16:00:31 2018
#---------------------------------------------------------
:version 1.10
:name HOM
:units
  mass 1.0
  length 1.000000
  angle deg
:documentation
     Acclaim Skeleton File
:root
   axis xyz
   order TX TY TZ RX RZ RY
   position 0.000000 0.000000 0.000000
   orientation 0 0 0
:bonedata
   begin
      id 1
      name Spine_dum
      direction 0.000000 0.554700 0.832050
      length 3.185137
      axis 0.0 0.0 0.0 xyz
   end
   begin
      id 2
      name RightUpLeg_dum
      direction -0.959879 0.000000 -0.280414
      length 3.741437
      axis 0.0 0.0 0.0 xyz
   end
   begin
      id 3
      name LeftUpLeg_dum
      direction 0.959879 0.000000 -0.280414
      length 3.741437
      axis 0.0 0.0 0.0 xyz
   end
   begin
      id 4
      name Spine
      direction 0.000000 0.173648 0.984808
      length 3.533592
      axis -10.0 0.0 0.0 xyz
      dof rx rz ry
   end
   begin
      id 5
      name Spine1
      direction 0.000000 0.087156 0.996195
      length 3.533592
      axis -5.0 0.0 0.0 xyz
      dof rx rz ry
   end
   begin
      id 6
      name Spine2
      direction 0.000000 0.000000 1.000000
      length 3.533592
      axis 0.0 0.0 0.0 xyz
      dof rx rz ry
   end
   begin
      id 7
      name Spine3
      direction 0.000000 -0.141421 0.989949
      length 0.000000
      axis 0.0 0.0 0.0 xyz
      dof rx rz ry
   end
   begin
      id 8
      name Spine3_dum1
      direction 0.000000 -0.141421 0.989949
      length 9.369850
      axis 0.0 0.0 0.0 xyz
   end
   begin
      id 9
      name Spine3_dum2
      direction -0.174242 -0.290403 0.940907
      length 6.947577
      axis 0.0 0.0 0.0 xyz
   end
   begin
      id 10
      name Spine3_dum3
      direction 0.174242 -0.290403 0.940907
      length 6.947577
      axis 0.0 0.0 0.0 xyz
   end
   begin
      id 11
      name Neck
      direction 0.000000 -0.173648 0.984808
      length 4.858689
      axis 10.0 0.0 0.0 xyz
      dof rx rz ry
   end
   begin
      id 12
      name Head
      direction 0.000000 0.000000 1.000000
      length 5.720002
      axis 0.0 0.0 0.0 xyz
      dof rx rz ry
   end
   begin
      id 13
      name RightShoulder
      direction -1.000000 0.000000 0.000000
      length 6.012446
      axis -180.0 0.0 -180.0 xyz
      dof rz rx ry
   end
   begin
      id 14
      name RightArm
      direction -1.000000 0.000000 0.000000
      length 11.728112
      axis -180.0 0.0 -180.0 xyz
      dof ry rz rx
   end
   begin
      id 15
      name RightForeArm
      direction -1.000000 0.000000 0.000000
      length 4.841601
      axis -180.0 0.0 -180.0 xyz
      dof rx ry rz
   end
   begin
      id 16
      name RightForeArmRoll
      direction -1.000000 0.000000 0.000000
      length 5.003964
      axis -180.0 0.0 -180.0 xyz
      dof rx ry rz
   end
   begin
      id 17
      name RightHand
      direction -1.000000 0.000000 0.000000
      length 0.000000
      axis -180.0 0.0 -180.0 xyz
      dof rx ry rz
   end
   begin
      id 18
      name RightHand_dum1
      direction -1.000000 0.000000 0.000000
      length 2.836875
      axis -180.0 0.0 -180.0 xyz
   end
   begin
      id 19
      name RightHand_dum2
      direction -0.486664 -0.811107 -0.324443
      length 2.331690
      axis -180.0 0.0 -180.0 xyz
   end
   begin
      id 20
      name RightHandEnd
      direction -1.000000 0.000000 0.000000
      length 2.836875
      axis 90.0 0.0 -180.0 xyz
      dof rx ry rz
   end
   begin
      id 21
      name RightHandThumb1
      direction -0.965926 -0.258819 0.000000
      length 2.836875
      axis -10.0 0.0 -165.0 xyz
      dof rx ry rz
   end
   begin
      id 22
      name LeftShoulder
      direction 1.000000 0.000000 0.000000
      length 6.012446
      axis 0.0 0.0 0.0 xyz
      dof rz rx ry
   end
   begin
      id 23
      name LeftArm
      direction 1.000000 0.000000 0.000000
      length 11.728112
      axis 0.0 0.0 0.0 xyz
      dof ry rz rx
   end
   begin
      id 24
      name LeftForeArm
      direction 1.000000 0.000000 0.000000
      length 4.841601
      axis 0.0 0.0 0.0 xyz
      dof rx ry rz
   end
   begin
      id 25
      name LeftForeArmRoll
      direction 1.000000 0.000000 0.000000
      length 5.003964
      axis 0.0 0.0 0.0 xyz
      dof rx ry rz
   end
   begin
      id 26
      name LeftHand
      direction 1.000000 0.000000 0.000000
      length 0.000000
      axis 0.0 0.0 0.0 xyz
      dof rx ry rz
   end
   begin
      id 27
      name LeftHand_dum1
      direction 1.000000 0.000000 0.000000
      length 2.836875
      axis 0.0 0.0 0.0 xyz
   end
   begin
      id 28
      name LeftHand_dum2
      direction 0.486664 -0.811107 -0.324443
      length 2.331690
      axis 0.0 0.0 0.0 xyz
   end
   begin
      id 29
      name LeftHandEnd
      direction 1.000000 0.000000 0.000000
      length 2.836875
      axis 90.0 0.0 0.0 xyz
      dof rx ry rz
   end
   begin
      id 30
      name LeftHandThumb1
      direction 0.965926 -0.258819 0.000000
      length 2.836875
      axis 170.0 0.0 -15.0 xyz
      dof rx ry rz
   end
   begin
      id 31
      name RightUpLeg
      direction 0.000000 0.000000 -1.000000
      length 15.861483
      axis 0.0 90.0 0.0 xyz
      dof ry rz rx
   end
   begin
      id 32
      name RightLeg
      direction 0.000000 0.000000 -1.000000
      length 17.164458
      axis 0.0 90.0 0.0 xyz
      dof rx ry rz
   end
   begin
      id 33
      name RightFoot
      direction 0.000000 -0.939693 -0.342020
      length 7.211980
      axis -90.0 20.0 -90.0 xyz
      dof rx rz ry
   end
   begin
      id 34
      name RightToeBase
      direction 0.000000 -1.000000 0.000000
      length 2.905343
      axis -90.0 0.0 -90.0 xyz
      dof ry rz rx
   end
   begin
      id 35
      name LeftUpLeg
      direction 0.000000 0.000000 -1.000000
      length 15.861483
      axis 0.0 90.0 0.0 xyz
      dof ry rz rx
   end
   begin
      id 36
      name LeftLeg
      direction 0.000000 0.000000 -1.000000
      length 17.164458
      axis 0.0 90.0 0.0 xyz
      dof rx ry rz
   end
   begin
      id 37
      name LeftFoot
      direction 0.000000 -0.939693 -0.342020
      length 7.211980
      axis -90.0 20.0 -90.0 xyz
      dof rx rz ry
   end
   begin
      id 38
      name LeftToeBase
      direction 0.000000 -1.000000 0.000000
      length 2.905343
      axis -90.0 0.0 -90.0 xyz
      dof ry rz rx
   end
:hierarchy
   begin
      root Spine_dum RightUpLeg_dum LeftUpLeg_dum
      Spine_dum Spine
      RightUpLeg_dum RightUpLeg
      LeftUpLeg_dum LeftUpLeg
      Spine Spine1
      Spine1 Spine2
      Spine2 Spine3
      Spine3 Spine3_dum1 Spine3_dum2 Spine3_dum3
      Spine3_dum1 Neck
      Spine3_dum2 RightShoulder
      Spine3_dum3 LeftShoulder
      Neck Head
      RightShoulder RightArm
      RightArm RightForeArm
      RightForeArm RightForeArmRoll
      RightForeArmRoll RightHand
      RightHand RightHand_dum1 RightHand_dum2
      RightHand_dum1 RightHandEnd
      RightHand_dum2 RightHandThumb1
      LeftShoulder LeftArm
      LeftArm LeftForeArm
      LeftForeArm LeftForeArmRoll
      LeftForeArmRoll LeftHand
      LeftHand LeftHand_dum1 LeftHand_dum2
      LeftHand_dum1 LeftHandEnd
      LeftHand_dum2 LeftHandThumb1
      RightUpLeg RightLeg
      RightLeg RightFoot
      RightFoot RightToeBase
      LeftUpLeg LeftLeg
      LeftLeg LeftFoot
      LeftFoot LeftToeBase
   end

# File created by Blade
# Date/Time:  Thu Mar 15 15:59:21 2018
# Frame Rate: 120.000 fps
#------------------------------------------------------
:FULLY-SPECIFIED
:DEGREES
22
root -0.242788 38.208367 -0.802755 -89.403992 0.218947 -0.178497
Spine -0.276094 0.077700 0.406373
Spine1 -0.682334 -0.000199 0.037871
Spine2 1.446642 0.369428 0.437333
Spine3 0.135399 -0.053531 -0.423161
Neck -1.264479 -0.135512 0.115355
Head -1.052137 -1.015488 -0.234572
RightShoulder 0.848957 -4.475265 -5.935508
RightArm -67.958527 -18.666151 -9.205106
RightForeArm 0.000000 -0.000000 -31.193388
RightForeArmRoll 4.812208 -0.000000 -0.000000
RightHand 0.000000 8.005710 -3.264071
RightHandEnd 0.000000 -0.000000 0.000000
RightHandThumb1 0.000000 -0.000000 0.000000
LeftShoulder 3.056253 5.190751 6.323040
LeftArm 67.674049 -37.968109 1.855868
LeftForeArm 0.000000 -0.000000 -19.256472
LeftForeArmRoll -4.811963 -0.000000 0.000000
LeftHand 0.000000 -21.003843 0.936142
LeftHandEnd 0.000000 -0.000000 0.000000
LeftHandThumb1 0.000000 -0.000000 0.000000
RightUpLeg 4.230679 -1.325818 9.621753
RightLeg -0.000000 -0.000000 15.134604
RightFoot 3.753534 -15.136789 -2.300497
RightToeBase -0.000000 1.002908 -0.000000
LeftUpLeg -5.006363 1.034493 1.113530
LeftLeg -0.000000 -0.000000 11.013477
LeftFoot -8.318330 -12.740868 -0.906902
LeftToeBase -0.000000 0.882126 -0.000000
23
root -0.239903 38.207220 -0.800024 -89.386955 0.229061 -0.177940
Spine -0.278284 0.076624 0.403990
Spine1 -0.683811 -0.000584 0.037241
Spine2 1.447995 0.363061 0.447329
Spine3 0.136116 -0.059221 -0.420237
Neck -1.264949 -0.125743 0.121475
Head -1.054386 -1.008486 -0.232965
RightShoulder 0.829152 -4.460186 -5.938824
RightArm -67.943604 -18.715506 -9.224478
RightForeArm 0.000000 -0.000000 -31.155888
RightForeArmRoll 4.653113 -0.000000 -0.000000
RightHand -0.000000 8.127729 -3.348670
RightHandEnd 0.000000 -0.000000 0.000000
RightHandThumb1 0.000000 -0.000000 0.000000
LeftShoulder 3.067344 5.187340 6.344344
LeftArm 67.593979 -38.155972 1.957940
LeftForeArm 0.000000 -0.000000 -19.238926
LeftForeArmRoll -4.532557 -0.000000 0.000000
LeftHand 0.000000 -21.227894 1.062968
LeftHandEnd 0.000000 -0.000000 0.000000
LeftHandThumb1 0.000000 -0.000000 0.000000
RightUpLeg 4.245972 -1.343551 9.638085
RightLeg -0.000000 -0.000000 15.138874
RightFoot 3.754294 -15.139939 -2.319784
RightToeBase -0.000000 1.019631 -0.000000
LeftUpLeg -4.995128 1.007033 1.068242
LeftLeg -0.000000 -0.000000 11.027840
LeftFoot -8.271596 -12.739242 -0.867935
LeftToeBase -0.000000 0.874815 -0.000000
24
root -0.238685 38.206745 -0.799168 -89.350021 0.227880 -0.170508
Spine -0.285305 0.074765 0.400065
Spine1 -0.693435 -0.000851 0.038562
Spine2 1.443963 0.360621 0.445837
Spine3 0.138895 -0.061306 -0.413858
Neck -1.270580 -0.124919 0.126545
Head -1.056553 -1.016517 -0.234416
RightShoulder 0.852052 -4.456403 -5.949196
RightArm -67.916847 -18.751827 -9.207896
RightForeArm 0.000000 -0.000000 -31.146664
RightForeArmRoll 4.699182 -0.000000 -0.000000
RightHand 0.000000 8.161032 -3.363916
RightHandEnd 0.000000 -0.000000 0.000000
RightHandThumb1 0.000000 -0.000000 0.000000
LeftShoulder 3.037023 5.158447 6.259999
LeftArm 67.833427 -37.623524 1.681400
LeftForeArm 0.000000 -0.000000 -19.341267
LeftForeArmRoll -5.812104 -0.000000 0.000000
LeftHand -0.000000 -20.836525 0.310760
LeftHandEnd 0.000000 -0.000000 0.000000
LeftHandThumb1 0.000000 -0.000000 0.000000
RightUpLeg 4.237876 -1.378307 9.611987
RightLeg -0.000000 -0.000000 15.135536
RightFoot 3.761035 -15.130713 -2.281046
RightToeBase -0.000000 1.020140 -0.000000
LeftUpLeg -4.997972 0.950966 1.035633
LeftLeg -0.000000 -0.000000 11.053907
LeftFoot -8.255203 -12.740667 -0.827275
LeftToeBase -0.000000 0.861776 -0.000000
25
root -0.237539 38.209386 -0.797239 -89.323250 0.229218 -0.152813
Spine -0.270130 0.078889 0.409892
Spine1 -0.664001 0.004186 0.056174
Spine2 1.376818 0.374734 0.415542
Spine3 0.122788 -0.031327 -0.427586
Neck -1.214653 -0.198351 0.130468
Head -1.065060 -1.045242 -0.239376
RightShoulder 0.940044 -4.463195 -5.965798
RightArm -67.862366 -18.766750 -9.230266
RightForeArm 0.000000 -0.000000 -31.174416
RightForeArmRoll 4.528681 -0.000000 -0.000000
RightHand 0.000000 8.127050 -3.271792
RightHandEnd 0.000000 -0.000000 0.000000
RightHandThumb1 0.000000 -0.000000 0.000000
LeftShoulder 2.946024 5.110697 6.330881
LeftArm 67.708199 -37.865677 1.916586
LeftForeArm 0.000000 -0.000000 -19.275013
LeftForeArmRoll -4.572815 -0.000000 0.000000
LeftHand -0.000000 -20.959225 0.980881
LeftHandEnd 0.000000 -0.000000 0.000000
LeftHandThumb1 0.000000 -0.000000 0.000000
RightUpLeg 4.234868 -1.392249 9.604548
RightLeg -0.000000 -0.000000 15.119771
RightFoot 3.783362 -15.112768 -2.260377
RightToeBase -0.000000 1.005884 -0.000000
LeftUpLeg -4.998392 0.907865 1.014676
LeftLeg -0.000000 -0.000000 11.075504
LeftFoot -8.227763 -12.734346 -0.789464
LeftToeBase -0.000000 0.847924 -0.000000
